<?xml version="1.0" encoding="UTF-8" standalone="no"?>
<!-- Generator: Adobe Illustrator 16.0.0, SVG Export Plug-In . SVG Version: 6.00 Build 0)  -->

<svg
   xmlns:dc="http://purl.org/dc/elements/1.1/"
   xmlns:cc="http://creativecommons.org/ns#"
   xmlns:rdf="http://www.w3.org/1999/02/22-rdf-syntax-ns#"
   xmlns:svg="http://www.w3.org/2000/svg"
   xmlns="http://www.w3.org/2000/svg"
   xmlns:sodipodi="http://sodipodi.sourceforge.net/DTD/sodipodi-0.dtd"
   xmlns:inkscape="http://www.inkscape.org/namespaces/inkscape"
   version="1.1"
   id="Layer_1"
   x="0px"
   y="0px"
   width="128"
   height="128"
   viewBox="0 0 128 128"
   enable-background="new 0 0 266.893 266.895"
   xml:space="preserve"
   inkscape:version="0.91 r13725"
   sodipodi:docname="fbvd.svg"
   inkscape:export-filename="D:\repos\github\denizdogan\facebook-video-downloader\promo\icons\fbvd-16.png"
   inkscape:export-xdpi="15"
   inkscape:export-ydpi="15"><metadata
     id="metadata9"><rdf:RDF><cc:Work
         rdf:about=""><dc:format>image/svg+xml</dc:format><dc:type
           rdf:resource="http://purl.org/dc/dcmitype/StillImage" /><dc:title></dc:title></cc:Work></rdf:RDF></metadata><defs
     id="defs7" /><sodipodi:namedview
     pagecolor="#ffffff"
     bordercolor="#666666"
     borderopacity="1"
     objecttolerance="10"
     gridtolerance="10"
     guidetolerance="10"
     inkscape:pageopacity="0"
     inkscape:pageshadow="2"
     inkscape:window-width="1920"
     inkscape:window-height="1018"
     id="namedview5"
     showgrid="false"
     showguides="true"
     inkscape:guide-bbox="true"
     inkscape:zoom="5.6568542"
     inkscape:cx="70.33117"
     inkscape:cy="61.222268"
     inkscape:window-x="-8"
     inkscape:window-y="-8"
     inkscape:window-maximized="1"
     inkscape:current-layer="Layer_1"
     borderlayer="false"
     inkscape:showpageshadow="false"><inkscape:grid
       type="xygrid"
       id="grid3368" /></sodipodi:namedview><path
     id="Blue_1_"
     d="M 106.70191,112 C 109.62754,112 112,109.62756 112,106.70121 l 0,-85.402789 c 0,-2.926722 -2.37209,-5.298422 -5.29809,-5.298422 l -85.403447,0 C 18.371718,15.999999 16,18.371699 16,21.298421 l 0,85.402789 C 16,109.62718 18.371346,112 21.298463,112 l 85.403447,0 z"
     inkscape:connector-curvature="0"
     style="fill:#3c5a99" /><path
     id="f"
     d="m 82.238611,89.484165 0,-29.148995 0,-9.249888 c 0,-4.194709 1.164813,-7.053264 7.179969,-7.053264 l 7.672043,-0.0034 0,-12.958485 C 95.763772,30.893616 91.209568,30.49914 85.911104,30.49914 c -11.061435,0 -18.634393,6.751912 -18.634393,19.151277 l 0,10.684753 0,29.148995 -9.385619,-4 L 74.791156,112 91.691221,85.484165 Z"
     inkscape:connector-curvature="0"
     style="fill:#ffffff"
     sodipodi:nodetypes="ccscccsscccccc" /></svg>