<svg xmlns="http://www.w3.org/2000/svg" xmlns:svg="http://www.w3.org/2000/svg" id="Layer_1" width="128" height="128" x="0" y="0" enable-background="new 0 0 266.893 266.895" version="1.1" viewBox="0 0 128 128" xml:space="preserve"><metadata id="metadata9"/><path id="Blue_1_" d="M 106.70191,112 C 109.62754,112 112,109.62756 112,106.70121 l 0,-85.402789 c 0,-2.926722 -2.37209,-5.298422 -5.29809,-5.298422 l -85.403447,0 C 18.371718,15.999999 16,18.371699 16,21.298421 l 0,85.402789 C 16,109.62718 18.371346,112 21.298463,112 l 85.403447,0 z" style="fill:#3c5a99"/><path id="f" d="m 82.238611,89.484165 0,-29.148995 0,-9.249888 c 0,-4.194709 1.164813,-7.053264 7.179969,-7.053264 l 7.672043,-0.0034 0,-12.958485 C 95.763772,30.893616 91.209568,30.49914 85.911104,30.49914 c -11.061435,0 -18.634393,6.751912 -18.634393,19.151277 l 0,10.684753 0,29.148995 -9.385619,-4 L 74.791156,112 91.691221,85.484165 Z" style="fill:#fff"/></svg>